<svg width="240" height="154" viewBox="0 0 240 154" xmlns="http://www.w3.org/2000/svg" font-family="system-ui,sans-serif">
  <title>Clinical Event Type profile</title>
  <style>a:hover rect{opacity:.85;}a rect,a text{cursor:pointer;}</style>
  <rect x="0" y="0" width="240" height="154" rx="5" fill="white" stroke="#ddd" stroke-width="1"/>
  <a href="CodeSystem-clinical-event-type-cs.html">
    <path d="M5,0 H235 A5,5 0 0 1 240,5 V48 H0 V5 A5,5 0 0 1 5,0 Z" fill="#7f8c8d"/>
    <text x="120" y="19" fill="white" font-weight="600" font-size="13" text-anchor="middle">Clinical Event Type</text>
    <text x="120" y="36" fill="#e0e8e8" font-size="11" text-anchor="middle">CodeSystem / ValueSet</text>
  </a>
  <rect x="1" y="48" width="238" height="18" fill="#f4f5f5"/>
  <line x1="1" y1="48" x2="239" y2="48" stroke="#e2e8f0" stroke-width="1"/>
  <text x="10" y="60" fill="#7f8c8d" font-size="9" font-weight="600" letter-spacing="0.3">CLINICAL EVENT TYPE CATALOGUE</text>
  <rect x="1" y="66" width="238" height="22" fill="white"/>
  <line x1="1" y1="88" x2="239" y2="88" stroke="#f0f4f8" stroke-width="1"/>
  <circle cx="12" cy="78" r="3" fill="#c53030" opacity="0.85"/>
  <a href="CodeSystem-clinical-event-type-cs.html">
    <text x="21" y="83" fill="#374151" font-size="13">Clinical Event Type ID</text>
    <text x="234" y="83" fill="#c53030" font-size="11" font-weight="700" text-anchor="end">M</text>
  </a>
  <rect x="1" y="88" width="238" height="22" fill="#f8fafc"/>
  <line x1="1" y1="110" x2="239" y2="110" stroke="#f0f4f8" stroke-width="1"/>
  <circle cx="12" cy="100" r="3" fill="#c53030" opacity="0.85"/>
  <a href="ValueSet-clinical-event-type-vs.html">
    <text x="21" y="105" fill="#374151" font-size="13">Name</text>
    <text x="234" y="105" fill="#c53030" font-size="11" font-weight="700" text-anchor="end">M</text>
  </a>
  <rect x="1" y="110" width="238" height="44" rx="0" fill="#f9fafb"/>
  <line x1="1" y1="110" x2="239" y2="110" stroke="#e2e8f0" stroke-width="1"/>
  <text x="10" y="126" fill="#9ca3af" font-size="10" font-style="italic">26 coded values defined in</text>
  <a href="CodeSystem-clinical-event-type-cs.html">
    <text x="10" y="142" fill="#7f8c8d" font-size="10" text-decoration="underline">ClinicalEventTypeCS</text>
  </a>
  <a href="ValueSet-clinical-event-type-vs.html">
    <text x="122" y="142" fill="#7f8c8d" font-size="10" text-decoration="underline">ClinicalEventTypeVS</text>
  </a>
</svg>
