<svg viewBox="0 0 960 720" xmlns="http://www.w3.org/2000/svg" role="img" font-family="system-ui, sans-serif" font-size="12">
  <title>PROTECT-CHILD Data Model to FHIR Resource Map</title>
  <desc>Diagram showing how PROTECT-CHILD logical model entities relate to each other and map to FHIR R4 resources. Click any box to navigate to its detail page.</desc>

  <style>
    a:hover rect { opacity: 0.82; }
    a rect, a text { cursor: pointer; }
  </style>

  <defs>
    <marker id="arr-blue" markerWidth="8" markerHeight="6" refX="7" refY="3" orient="auto">
      <polygon points="0 0, 8 3, 0 6" fill="#4a90d9"/>
    </marker>
    <marker id="arr-orange" markerWidth="8" markerHeight="6" refX="7" refY="3" orient="auto">
      <polygon points="0 0, 8 3, 0 6" fill="#e67e22"/>
    </marker>
  </defs>

  <!-- Legend -->
  <rect x="20" y="14" width="920" height="32" rx="4" fill="#f8f8f8" stroke="#ddd"/>
  <rect x="32" y="22" width="12" height="12" rx="2" fill="#4a90d9"/>
  <text x="50" y="33" fill="#333">Participant</text>
  <rect x="130" y="22" width="12" height="12" rx="2" fill="#e67e22"/>
  <text x="148" y="33" fill="#333">Event</text>
  <rect x="208" y="22" width="12" height="12" rx="2" fill="#27ae60"/>
  <text x="226" y="33" fill="#333">Clinical</text>
  <rect x="298" y="22" width="12" height="12" rx="2" fill="#8e44ad"/>
  <text x="316" y="33" fill="#333">Lab</text>
  <rect x="358" y="22" width="12" height="12" rx="2" fill="#c0392b"/>
  <text x="376" y="33" fill="#333">Medication</text>
  <rect x="460" y="22" width="12" height="12" rx="2" fill="#16a085"/>
  <text x="478" y="33" fill="#333">Specimen</text>
  <rect x="556" y="22" width="12" height="12" rx="2" fill="#7f8c8d"/>
  <text x="574" y="33" fill="#333">Outcome</text>
  <rect x="660" y="22" width="12" height="12" rx="2" fill="#f0f0f0" stroke="#aaa"/>
  <text x="678" y="33" fill="#333">FHIR resource (right panel)</text>

  <!-- Section labels -->
  <text x="270" y="68" fill="#666" font-size="11" font-weight="600" text-anchor="middle">DATA MODEL ENTITIES</text>
  <text x="730" y="68" fill="#666" font-size="11" font-weight="600" text-anchor="middle">FHIR R4 RESOURCES</text>
  <line x1="540" y1="55" x2="540" y2="710" stroke="#ddd" stroke-width="1.5" stroke-dasharray="4 3"/>

  <!-- ══════════════════════════════════
       LEFT PANEL — DM ENTITIES
       ══════════════════════════════════ -->

  <a href="patient-map.html">
    <rect x="200" y="80" width="140" height="44" rx="6" fill="#4a90d9"/>
    <text x="270" y="100" fill="white" font-weight="600" text-anchor="middle">Patient</text>
    <text x="270" y="115" fill="#d4e8ff" font-size="10" text-anchor="middle">PatientTransplant</text>
  </a>

  <a href="donor-map.html">
    <rect x="366" y="80" width="140" height="44" rx="6" fill="#4a90d9"/>
    <text x="436" y="100" fill="white" font-weight="600" text-anchor="middle">Donor</text>
    <text x="436" y="115" fill="#d4e8ff" font-size="10" text-anchor="middle">Donor profile</text>
  </a>

  <a href="visit-map.html">
    <rect x="195" y="185" width="150" height="44" rx="6" fill="#e67e22"/>
    <text x="270" y="205" fill="white" font-weight="600" text-anchor="middle">Visit</text>
    <text x="270" y="220" fill="#fde8c8" font-size="10" text-anchor="middle">Encounter</text>
  </a>

  <a href="transplant-map.html">
    <rect x="361" y="185" width="150" height="44" rx="6" fill="#e67e22"/>
    <text x="436" y="205" fill="white" font-weight="600" text-anchor="middle">Transplant</text>
    <text x="436" y="220" fill="#fde8c8" font-size="10" text-anchor="middle">Procedure + Observation</text>
  </a>

  <a href="vital-sign-map.html">
    <rect x="30" y="295" width="148" height="38" rx="5" fill="#27ae60"/>
    <text x="104" y="312" fill="white" font-weight="600" text-anchor="middle">Vital Sign</text>
    <text x="104" y="325" fill="#c8f0d8" font-size="10" text-anchor="middle">Observation (panel)</text>
  </a>

  <a href="clinical-variable-map.html">
    <rect x="30" y="345" width="148" height="38" rx="5" fill="#27ae60"/>
    <text x="104" y="361" fill="white" font-weight="600" text-anchor="middle">Clinical Variable</text>
    <text x="104" y="374" fill="#c8f0d8" font-size="10" text-anchor="middle">Observation</text>
  </a>

  <a href="immunological-data-map.html">
    <rect x="30" y="395" width="148" height="38" rx="5" fill="#27ae60"/>
    <text x="104" y="411" fill="white" font-weight="600" text-anchor="middle">Immunological Data</text>
    <text x="104" y="424" fill="#c8f0d8" font-size="10" text-anchor="middle">Observation (panel)</text>
  </a>

  <a href="microbiology-map.html">
    <rect x="30" y="445" width="148" height="38" rx="5" fill="#27ae60"/>
    <text x="104" y="461" fill="white" font-weight="600" text-anchor="middle">Microbiology</text>
    <text x="104" y="474" fill="#c8f0d8" font-size="10" text-anchor="middle">Observation (panel)</text>
  </a>

  <a href="instrumental-investigation-map.html">
    <rect x="30" y="495" width="148" height="38" rx="5" fill="#27ae60"/>
    <text x="104" y="511" fill="white" font-weight="600" text-anchor="middle">Instr. Investigation</text>
    <text x="104" y="524" fill="#c8f0d8" font-size="10" text-anchor="middle">Observation</text>
  </a>

  <a href="lab-map.html">
    <rect x="196" y="295" width="148" height="38" rx="5" fill="#8e44ad"/>
    <text x="270" y="312" fill="white" font-weight="600" text-anchor="middle">Lab Test</text>
    <text x="270" y="325" fill="#e8d0f8" font-size="10" text-anchor="middle">ObservationDefinition</text>
  </a>

  <a href="lab-map.html">
    <rect x="196" y="345" width="148" height="38" rx="5" fill="#8e44ad"/>
    <text x="270" y="361" fill="white" font-weight="600" text-anchor="middle">Lab Result</text>
    <text x="270" y="374" fill="#e8d0f8" font-size="10" text-anchor="middle">Observation</text>
  </a>

  <a href="clinical-event-type-map.html">
    <rect x="196" y="393" width="148" height="38" rx="5" fill="#7f8c8d" opacity="0.7"/>
    <text x="270" y="409" fill="white" font-weight="600" text-anchor="middle">Clinical Event Type</text>
    <text x="270" y="422" fill="#e0e8e8" font-size="10" text-anchor="middle">CodeSystem / ValueSet</text>
  </a>

  <a href="clinical-event-map.html">
    <rect x="196" y="445" width="148" height="38" rx="5" fill="#7f8c8d"/>
    <text x="270" y="461" fill="white" font-weight="600" text-anchor="middle">Clinical Event</text>
    <text x="270" y="474" fill="#e0e8e8" font-size="10" text-anchor="middle">Condition</text>
  </a>

  <a href="biosample-map.html">
    <rect x="196" y="495" width="148" height="38" rx="5" fill="#16a085"/>
    <text x="270" y="511" fill="white" font-weight="600" text-anchor="middle">BioSample</text>
    <text x="270" y="524" fill="#c0f0e8" font-size="10" text-anchor="middle">Specimen</text>
  </a>

  <a href="pre-medication-map.html">
    <rect x="362" y="295" width="148" height="38" rx="5" fill="#c0392b"/>
    <text x="436" y="312" fill="white" font-weight="600" text-anchor="middle">Pre-Medication</text>
    <text x="436" y="325" fill="#ffd0cc" font-size="10" text-anchor="middle">MedicationStatement</text>
  </a>

  <a href="concomitant-medication-map.html">
    <rect x="362" y="345" width="148" height="38" rx="5" fill="#c0392b"/>
    <text x="436" y="361" fill="white" font-weight="600" text-anchor="middle">Concomitant Med.</text>
    <text x="436" y="374" fill="#ffd0cc" font-size="10" text-anchor="middle">MedicationStatement</text>
  </a>

  <a href="immunosuppressant-map.html">
    <rect x="362" y="395" width="148" height="38" rx="5" fill="#c0392b"/>
    <text x="436" y="411" fill="white" font-weight="600" text-anchor="middle">Immunosuppressant</text>
    <text x="436" y="424" fill="#ffd0cc" font-size="10" text-anchor="middle">MedicationStatement</text>
  </a>

  <a href="immunosuppressant-map.html">
    <rect x="362" y="445" width="148" height="38" rx="5" fill="#c0392b" opacity="0.7"/>
    <text x="436" y="461" fill="white" font-weight="600" text-anchor="middle">Drug Catalogue</text>
    <text x="436" y="474" fill="#ffd0cc" font-size="10" text-anchor="middle">Medication</text>
  </a>

  <!-- Arrow legend -->
  <text x="30" y="560" fill="#555" font-size="10" font-style="italic">A → B: each B record holds a FHIR Reference back to A (e.g. Observation.encounter → Encounter)</text>

  <!-- ── RELATIONSHIP ARROWS ── -->

  <!-- Patient → Visit -->
  <line x1="270" y1="124" x2="270" y2="185" stroke="#4a90d9" stroke-width="1.5" marker-end="url(#arr-blue)"/>

  <!-- Donor → Transplant -->
  <line x1="436" y1="124" x2="436" y2="185" stroke="#4a90d9" stroke-width="1.5" marker-end="url(#arr-blue)"/>

  <!-- Visit → Transplant -->
  <line x1="345" y1="207" x2="361" y2="207" stroke="#e67e22" stroke-width="1.5" marker-end="url(#arr-orange)"/>

  <!-- LEFT COLUMN SPINE  x=14 (left of all left-column boxes which start at x=30)
       Trunk: Visit bottom-left → horizontal to spine → vertical down.
       Branches: short horizontal arrows into each box's left edge. -->
  <polyline points="195,229 14,229 14,514" stroke="#e67e22" stroke-width="1.2" fill="none"/>
  <line x1="14" y1="314" x2="30" y2="314" stroke="#e67e22" stroke-width="1.2" marker-end="url(#arr-orange)"/>
  <line x1="14" y1="364" x2="30" y2="364" stroke="#e67e22" stroke-width="1.2" marker-end="url(#arr-orange)"/>
  <line x1="14" y1="414" x2="30" y2="414" stroke="#e67e22" stroke-width="1.2" marker-end="url(#arr-orange)"/>
  <line x1="14" y1="464" x2="30" y2="464" stroke="#e67e22" stroke-width="1.2" marker-end="url(#arr-orange)"/>
  <line x1="14" y1="514" x2="30" y2="514" stroke="#e67e22" stroke-width="1.2" marker-end="url(#arr-orange)"/>

  <!-- MIDDLE-LEFT SPINE  x=187 (gap between left col x≤178 and middle col x≥196)
       Visit centre-bottom (270,229) drops straight down to Lab Test (same x=270).
       Trunk for remaining middle-col boxes runs left from Visit bottom to spine at x=187. -->
  <line x1="270" y1="229" x2="270" y2="295" stroke="#e67e22" stroke-width="1.2" marker-end="url(#arr-orange)"/>
  <polyline points="270,229 187,229 187,514" stroke="#e67e22" stroke-width="1.2" fill="none"/>
  <line x1="187" y1="364" x2="196" y2="364" stroke="#e67e22" stroke-width="1.2" marker-end="url(#arr-orange)"/>
  <line x1="187" y1="412" x2="196" y2="412" stroke="#e67e22" stroke-width="1.2" marker-end="url(#arr-orange)"/>
  <line x1="187" y1="462" x2="196" y2="462" stroke="#e67e22" stroke-width="1.2" marker-end="url(#arr-orange)"/>
  <line x1="187" y1="514" x2="196" y2="514" stroke="#e67e22" stroke-width="1.2" marker-end="url(#arr-orange)"/>

  <!-- RIGHT SPINE  x=352 (just left of Transplant's left edge at x=361)
       Trunk: Visit centre-bottom → right to x=352 → vertical down.
       Branches: short horizontal arrows into each right-col box's left edge (x=362). -->
  <polyline points="270,229 352,229 352,414" stroke="#e67e22" stroke-width="1.2" fill="none"/>
  <line x1="352" y1="314" x2="362" y2="314" stroke="#e67e22" stroke-width="1.2" marker-end="url(#arr-orange)"/>
  <line x1="352" y1="364" x2="362" y2="364" stroke="#e67e22" stroke-width="1.2" marker-end="url(#arr-orange)"/>
  <line x1="352" y1="414" x2="362" y2="414" stroke="#e67e22" stroke-width="1.2" marker-end="url(#arr-orange)"/>

  <!-- Immunosuppressant → Drug Catalogue (straight vertical within right column) -->
  <line x1="436" y1="433" x2="436" y2="445" stroke="#c0392b" stroke-width="1.2" marker-end="url(#arr-orange)"/>

  <!-- ══════════════════════════════════
       RIGHT PANEL — FHIR RESOURCES
       ══════════════════════════════════ -->

  <rect x="560" y="80" width="370" height="570" rx="8" fill="#fafafa" stroke="#ddd"/>

  <a href="http://hl7.org/fhir/R4/patient.html" target="_blank">
    <rect x="580" y="100" width="330" height="44" rx="5" fill="#e8f0fb" stroke="#4a90d9" stroke-width="1.5"/>
    <text x="745" y="120" fill="#2c3e50" font-weight="700" text-anchor="middle" font-size="13">Patient</text>
    <text x="745" y="136" fill="#666" font-size="10" text-anchor="middle">PatientTransplant · Donor</text>
  </a>

  <a href="http://hl7.org/fhir/R4/encounter.html" target="_blank">
    <rect x="580" y="162" width="330" height="44" rx="5" fill="#fef2e4" stroke="#e67e22" stroke-width="1.5"/>
    <text x="745" y="182" fill="#2c3e50" font-weight="700" text-anchor="middle" font-size="13">Encounter</text>
    <text x="745" y="198" fill="#666" font-size="10" text-anchor="middle">Visit · Transplant</text>
  </a>

  <a href="http://hl7.org/fhir/R4/observation.html" target="_blank">
    <rect x="580" y="224" width="330" height="58" rx="5" fill="#eafaf1" stroke="#27ae60" stroke-width="1.5"/>
    <text x="745" y="247" fill="#2c3e50" font-weight="700" text-anchor="middle" font-size="13">Observation</text>
    <text x="745" y="263" fill="#666" font-size="10" text-anchor="middle">VitalSign · ClinicalVariable · ImmunologicalData</text>
    <text x="745" y="276" fill="#666" font-size="10" text-anchor="middle">Microbiology · InstrumentalInv · LabResult · TransplantDetail</text>
  </a>

  <a href="http://hl7.org/fhir/R4/observationdefinition.html" target="_blank">
    <rect x="580" y="300" width="330" height="44" rx="5" fill="#f5eafb" stroke="#8e44ad" stroke-width="1.5"/>
    <text x="745" y="320" fill="#2c3e50" font-weight="700" text-anchor="middle" font-size="13">ObservationDefinition</text>
    <text x="745" y="336" fill="#666" font-size="10" text-anchor="middle">Lab Test (catalogue)</text>
  </a>

  <a href="http://hl7.org/fhir/R4/medicationstatement.html" target="_blank">
    <rect x="580" y="362" width="330" height="58" rx="5" fill="#fdecea" stroke="#c0392b" stroke-width="1.5"/>
    <text x="745" y="385" fill="#2c3e50" font-weight="700" text-anchor="middle" font-size="13">MedicationStatement</text>
    <text x="745" y="401" fill="#666" font-size="10" text-anchor="middle">Pre-Medication · Immunosuppressant (ImmPat)</text>
    <text x="745" y="414" fill="#666" font-size="10" text-anchor="middle">Concomitant Medication</text>
  </a>

  <a href="http://hl7.org/fhir/R4/medication.html" target="_blank">
    <rect x="580" y="438" width="330" height="44" rx="5" fill="#fdecea" stroke="#c0392b" stroke-width="1.5"/>
    <text x="745" y="458" fill="#2c3e50" font-weight="700" text-anchor="middle" font-size="13">Medication</text>
    <text x="745" y="474" fill="#666" font-size="10" text-anchor="middle">Drug Catalogue</text>
  </a>

  <a href="http://hl7.org/fhir/R4/specimen.html" target="_blank">
    <rect x="580" y="500" width="330" height="44" rx="5" fill="#e4f8f4" stroke="#16a085" stroke-width="1.5"/>
    <text x="745" y="520" fill="#2c3e50" font-weight="700" text-anchor="middle" font-size="13">Specimen</text>
    <text x="745" y="536" fill="#666" font-size="10" text-anchor="middle">BioSample</text>
  </a>

  <a href="http://hl7.org/fhir/R4/condition.html" target="_blank">
    <rect x="580" y="562" width="330" height="44" rx="5" fill="#eaecec" stroke="#7f8c8d" stroke-width="1.5"/>
    <text x="745" y="582" fill="#2c3e50" font-weight="700" text-anchor="middle" font-size="13">Condition</text>
    <text x="745" y="598" fill="#666" font-size="10" text-anchor="middle">Clinical Event</text>
  </a>
</svg>
