<svg width="240" height="374" viewBox="0 0 240 374" xmlns="http://www.w3.org/2000/svg" font-family="system-ui,sans-serif">
  <title>ImmPat profile</title>
  <style>a:hover rect{opacity:.85;}a rect,a text{cursor:pointer;}</style>
  <rect x="0" y="0" width="240" height="374" rx="5" fill="white" stroke="#ddd" stroke-width="1"/>
  <a href="StructureDefinition-imm-pat.html">
    <path d="M5,0 H235 A5,5 0 0 1 240,5 V48 H0 V5 A5,5 0 0 1 5,0 Z" fill="#c0392b"/>
    <text x="120" y="19" fill="white" font-weight="600" font-size="13" text-anchor="middle">ImmPat</text>
    <text x="120" y="36" fill="#ffd0cc" font-size="11" text-anchor="middle">MedicationStatement</text>
  </a>
  <rect x="1" y="48" width="238" height="18" fill="#fef5f4"/>
  <line x1="1" y1="48" x2="239" y2="48" stroke="#e2e8f0" stroke-width="1"/>
  <text x="10" y="60" fill="#c0392b" font-size="9" font-weight="600" letter-spacing="0.3">DRUG CATALOGUE (MEDICATION)</text>
  <rect x="1" y="66" width="238" height="22" fill="white"/>
  <line x1="1" y1="88" x2="239" y2="88" stroke="#f0f4f8" stroke-width="1"/>
  <circle cx="12" cy="78" r="3" fill="#c53030" opacity="0.85"/>
  <a href="StructureDefinition-immunosuppressant.html">
    <text x="21" y="83" fill="#374151" font-size="13">Drug ID</text>
    <text x="234" y="83" fill="#c53030" font-size="11" font-weight="700" text-anchor="end">M</text>
  </a>
  <rect x="1" y="88" width="238" height="22" fill="#f8fafc"/>
  <line x1="1" y1="110" x2="239" y2="110" stroke="#f0f4f8" stroke-width="1"/>
  <circle cx="12" cy="100" r="3" fill="#c53030" opacity="0.85"/>
  <a href="StructureDefinition-immunosuppressant.html">
    <text x="21" y="105" fill="#374151" font-size="13">Drug Name</text>
    <text x="234" y="105" fill="#c53030" font-size="11" font-weight="700" text-anchor="end">M</text>
  </a>
  <rect x="1" y="110" width="238" height="18" fill="#fef5f4"/>
  <line x1="1" y1="110" x2="239" y2="110" stroke="#e2e8f0" stroke-width="1"/>
  <text x="10" y="122" fill="#c0392b" font-size="9" font-weight="600" letter-spacing="0.3">IMMUNOSUPPRESSANT TO PATIENT (MEDICATIONSTATEMENT)</text>
  <rect x="1" y="128" width="238" height="22" fill="white"/>
  <line x1="1" y1="150" x2="239" y2="150" stroke="#f0f4f8" stroke-width="1"/>
  <circle cx="12" cy="140" r="3" fill="#c53030" opacity="0.85"/>
  <a href="http://hl7.org/fhir/R4/medicationstatement.html">
    <text x="21" y="145" fill="#374151" font-size="13">ImmPat ID</text>
    <text x="234" y="145" fill="#c53030" font-size="11" font-weight="700" text-anchor="end">M</text>
  </a>
  <rect x="1" y="150" width="238" height="22" fill="#f8fafc"/>
  <line x1="1" y1="172" x2="239" y2="172" stroke="#f0f4f8" stroke-width="1"/>
  <circle cx="12" cy="162" r="3" fill="#c53030" opacity="0.85"/>
  <a href="StructureDefinition-immunosuppressant.html">
    <text x="21" y="167" fill="#374151" font-size="13">Drug Reference</text>
    <text x="234" y="167" fill="#c53030" font-size="11" font-weight="700" text-anchor="end">M</text>
  </a>
  <rect x="1" y="172" width="238" height="22" fill="white"/>
  <line x1="1" y1="194" x2="239" y2="194" stroke="#f0f4f8" stroke-width="1"/>
  <circle cx="12" cy="184" r="3" fill="#c53030" opacity="0.85"/>
  <a href="StructureDefinition-visit.html">
    <text x="21" y="189" fill="#374151" font-size="13">Visit ID</text>
    <text x="234" y="189" fill="#c53030" font-size="11" font-weight="700" text-anchor="end">M</text>
  </a>
  <rect x="1" y="194" width="238" height="22" fill="#f8fafc"/>
  <line x1="1" y1="216" x2="239" y2="216" stroke="#f0f4f8" stroke-width="1"/>
  <circle cx="12" cy="206" r="3" fill="#c53030" opacity="0.85"/>
  <a href="ValueSet-imm-pat-phase-vs.html">
    <text x="21" y="211" fill="#374151" font-size="13">Phase</text>
    <text x="234" y="211" fill="#c53030" font-size="11" font-weight="700" text-anchor="end">M</text>
  </a>
  <rect x="1" y="216" width="238" height="22" fill="white"/>
  <line x1="1" y1="238" x2="239" y2="238" stroke="#f0f4f8" stroke-width="1"/>
  <circle cx="12" cy="228" r="3" fill="#c05621" opacity="0.85"/>
  <a href="http://hl7.org/fhir/R4/medicationstatement.html">
    <text x="21" y="233" fill="#374151" font-size="13">Dose</text>
    <text x="234" y="233" fill="#c05621" font-size="11" font-weight="700" text-anchor="end">R</text>
  </a>
  <rect x="1" y="238" width="238" height="22" fill="#f8fafc"/>
  <line x1="1" y1="260" x2="239" y2="260" stroke="#f0f4f8" stroke-width="1"/>
  <circle cx="12" cy="250" r="3" fill="#c05621" opacity="0.85"/>
  <a href="ValueSet-imm-pat-dose-unit-vs.html">
    <text x="21" y="255" fill="#374151" font-size="13">Unit</text>
    <text x="234" y="255" fill="#c05621" font-size="11" font-weight="700" text-anchor="end">R</text>
  </a>
  <rect x="1" y="260" width="238" height="22" fill="white"/>
  <line x1="1" y1="282" x2="239" y2="282" stroke="#f0f4f8" stroke-width="1"/>
  <circle cx="12" cy="272" r="3" fill="#c05621" opacity="0.85"/>
  <a href="StructureDefinition-imm-pat-pk-observation.html">
    <text x="21" y="277" fill="#374151" font-size="13">Pre-Dose Level</text>
    <text x="234" y="277" fill="#c05621" font-size="11" font-weight="700" text-anchor="end">R</text>
  </a>
  <rect x="1" y="282" width="238" height="22" fill="#f8fafc"/>
  <line x1="1" y1="304" x2="239" y2="304" stroke="#f0f4f8" stroke-width="1"/>
  <circle cx="12" cy="294" r="3" fill="#c05621" opacity="0.85"/>
  <a href="StructureDefinition-imm-pat-pk-observation.html">
    <text x="21" y="299" fill="#374151" font-size="13">CsA 2h Post-Dose</text>
    <text x="234" y="299" fill="#c05621" font-size="11" font-weight="700" text-anchor="end">R</text>
  </a>
  <rect x="1" y="304" width="238" height="22" fill="white"/>
  <line x1="1" y1="326" x2="239" y2="326" stroke="#f0f4f8" stroke-width="1"/>
  <circle cx="12" cy="316" r="3" fill="#c05621" opacity="0.85"/>
  <a href="StructureDefinition-imm-pat-pk-observation.html">
    <text x="21" y="321" fill="#374151" font-size="13">AUC</text>
    <text x="234" y="321" fill="#c05621" font-size="11" font-weight="700" text-anchor="end">R</text>
  </a>
  <rect x="1" y="326" width="238" height="22" fill="#f8fafc"/>
  <line x1="1" y1="348" x2="239" y2="348" stroke="#f0f4f8" stroke-width="1"/>
  <circle cx="12" cy="338" r="3" fill="#c05621" opacity="0.85"/>
  <a href="http://hl7.org/fhir/R4/medicationstatement.html">
    <text x="21" y="343" fill="#374151" font-size="13">Start Date</text>
    <text x="234" y="343" fill="#c05621" font-size="11" font-weight="700" text-anchor="end">R</text>
  </a>
  <rect x="1" y="348" width="238" height="22" fill="white"/>
  <circle cx="12" cy="360" r="3" fill="#c05621" opacity="0.85"/>
  <a href="http://hl7.org/fhir/R4/medicationstatement.html">
    <text x="21" y="365" fill="#374151" font-size="13">End Date</text>
    <text x="234" y="365" fill="#c05621" font-size="11" font-weight="700" text-anchor="end">R</text>
  </a>
</svg>