<svg viewBox="0 0 920 338" xmlns="http://www.w3.org/2000/svg" role="img" font-family="system-ui, -apple-system, Segoe UI, sans-serif" font-size="12">
<title>1-month follow-up visit (2023-09-15)</title>
<desc>Resources in the worked-example Bundle, grouped by the visit or phase they belong to, coloured by FHIR resource type. Each chip names the resource, its business identifier and its profile, and records the reference it makes to another entry.</desc>
<style>a:hover rect{opacity:.82}a rect,a text{cursor:pointer}</style>
<rect x="0" y="0" width="920" height="338" fill="white"/>
<a href="Encounter-VisitExample1.html">
<rect x="20" y="16" width="210" height="64" rx="4" fill="#fef3c7" stroke="#fcd34d"/>
<text x="29" y="33" font-size="12" font-weight="700" fill="#92400e">Encounter</text>
<text x="29" y="48" font-size="11" fill="#111">VIS-1-0002</text>
<text x="29" y="61" font-size="10" fill="#64748b">visit</text>
</a>
<a href="Observation-VitalSignExample1.html">
<rect x="240" y="16" width="210" height="64" rx="4" fill="#dcfce7" stroke="#86efac"/>
<text x="249" y="33" font-size="12" font-weight="700" fill="#166534">Observation</text>
<text x="249" y="48" font-size="11" fill="#111">VIT-1-0001</text>
<text x="249" y="61" font-size="10" fill="#64748b">vital-sign</text>
<text x="249" y="73" font-size="9.5" fill="#94a3b8">encounter → VIS-1-0002</text>
</a>
<a href="Observation-lab-result-observation-example-1.html">
<rect x="460" y="16" width="210" height="64" rx="4" fill="#dcfce7" stroke="#86efac"/>
<text x="469" y="33" font-size="12" font-weight="700" fill="#166534">Observation</text>
<text x="469" y="48" font-size="11" fill="#111">LBR-1-0001</text>
<text x="469" y="61" font-size="10" fill="#64748b">lab-result-observation</text>
<text x="469" y="73" font-size="9.5" fill="#94a3b8">encounter → VIS-1-0002</text>
</a>
<a href="Observation-lab-result-albumin-month-1.html">
<rect x="680" y="16" width="210" height="64" rx="4" fill="#dcfce7" stroke="#86efac"/>
<text x="689" y="33" font-size="12" font-weight="700" fill="#166534">Observation</text>
<text x="689" y="48" font-size="11" fill="#111">LBR-1-0002</text>
<text x="689" y="61" font-size="10" fill="#64748b">lab-result-observation</text>
<text x="689" y="73" font-size="9.5" fill="#94a3b8">encounter → VIS-1-0002</text>
</a>
<a href="Observation-lab-result-alt-month-1.html">
<rect x="20" y="90" width="210" height="64" rx="4" fill="#dcfce7" stroke="#86efac"/>
<text x="29" y="107" font-size="12" font-weight="700" fill="#166534">Observation</text>
<text x="29" y="122" font-size="11" fill="#111">LBR-1-0003</text>
<text x="29" y="135" font-size="10" fill="#64748b">lab-result-observation</text>
<text x="29" y="147" font-size="9.5" fill="#94a3b8">encounter → VIS-1-0002</text>
</a>
<a href="Specimen-biosample-example-1.html">
<rect x="240" y="90" width="210" height="64" rx="4" fill="#ccfbf1" stroke="#5eead4"/>
<text x="249" y="107" font-size="12" font-weight="700" fill="#115e59">Specimen</text>
<text x="249" y="122" font-size="11" fill="#111">BIO-1-0001</text>
<text x="249" y="135" font-size="10" fill="#64748b">biosample</text>
</a>
<a href="ServiceRequest-BioSampleGenomicRequest1.html">
<rect x="460" y="90" width="210" height="64" rx="4" fill="#ecfeff" stroke="#a5f3fc"/>
<text x="469" y="107" font-size="12" font-weight="700" fill="#155e75">ServiceRequest</text>
<text x="469" y="122" font-size="11" fill="#111">BioSampleGenomicRequest1</text>
<text x="469" y="135" font-size="10" fill="#64748b">biosample-analysis-request</text>
<text x="469" y="147" font-size="9.5" fill="#94a3b8">encounter → VIS-1-0002</text>
</a>
<a href="Observation-ClinicalVariableExample1.html">
<rect x="680" y="90" width="210" height="64" rx="4" fill="#dcfce7" stroke="#86efac"/>
<text x="689" y="107" font-size="12" font-weight="700" fill="#166534">Observation</text>
<text x="689" y="122" font-size="11" fill="#111">CLV-1-0001</text>
<text x="689" y="135" font-size="10" fill="#64748b">clinical-variable</text>
<text x="689" y="147" font-size="9.5" fill="#94a3b8">encounter → VIS-1-0002</text>
</a>
<a href="Condition-ConcomitantDiseaseExample1.html">
<rect x="20" y="164" width="210" height="64" rx="4" fill="#fee2e2" stroke="#fca5a5"/>
<text x="29" y="181" font-size="12" font-weight="700" fill="#991b1b">Condition</text>
<text x="29" y="196" font-size="11" fill="#111">ConcomitantDiseaseExample1</text>
<text x="29" y="209" font-size="10" fill="#64748b">concomitant-disease</text>
<text x="29" y="221" font-size="9.5" fill="#94a3b8">encounter → VIS-1-0002</text>
</a>
<a href="Observation-microbiology-example-1.html">
<rect x="240" y="164" width="210" height="64" rx="4" fill="#dcfce7" stroke="#86efac"/>
<text x="249" y="181" font-size="12" font-weight="700" fill="#166534">Observation</text>
<text x="249" y="196" font-size="11" fill="#111">MIC-1-0001</text>
<text x="249" y="209" font-size="10" fill="#64748b">microbiology</text>
<text x="249" y="221" font-size="9.5" fill="#94a3b8">encounter → VIS-1-0002</text>
</a>
<a href="Condition-MicrobiologyDiagnosisExample1.html">
<rect x="460" y="164" width="210" height="64" rx="4" fill="#fee2e2" stroke="#fca5a5"/>
<text x="469" y="181" font-size="12" font-weight="700" fill="#991b1b">Condition</text>
<text x="469" y="196" font-size="11" fill="#111">MicrobiologyDiagnosisExample1</text>
<text x="469" y="209" font-size="10" fill="#64748b">microbiology-diagnosis</text>
<text x="469" y="221" font-size="9.5" fill="#94a3b8">encounter → VIS-1-0002</text>
</a>
<a href="MedicationStatement-ImmPatMaintenanceExample1.html">
<rect x="680" y="164" width="210" height="64" rx="4" fill="#f3e8ff" stroke="#d8b4fe"/>
<text x="689" y="181" font-size="12" font-weight="700" fill="#6b21a8">MedicationStatement</text>
<text x="689" y="196" font-size="11" fill="#111">IMP-1-0002</text>
<text x="689" y="209" font-size="10" fill="#64748b">imm-pat</text>
<text x="689" y="221" font-size="9.5" fill="#94a3b8">context → VIS-1-0002</text>
</a>
<a href="Observation-ImmPatPKObservationExample1.html">
<rect x="20" y="238" width="210" height="64" rx="4" fill="#dcfce7" stroke="#86efac"/>
<text x="29" y="255" font-size="12" font-weight="700" fill="#166534">Observation</text>
<text x="29" y="270" font-size="11" fill="#111">ImmPatPKObservationExample1</text>
<text x="29" y="283" font-size="10" fill="#64748b">imm-pat-pk-observation</text>
<text x="29" y="295" font-size="9.5" fill="#94a3b8">partOf → IMP-1-0002</text>
</a>
<a href="MedicationStatement-ImmPatEbvReducedExample1.html">
<rect x="240" y="238" width="210" height="64" rx="4" fill="#f3e8ff" stroke="#d8b4fe"/>
<text x="249" y="255" font-size="12" font-weight="700" fill="#6b21a8">MedicationStatement</text>
<text x="249" y="270" font-size="11" fill="#111">IMP-1-0003</text>
<text x="249" y="283" font-size="10" fill="#64748b">imm-pat</text>
<text x="249" y="295" font-size="9.5" fill="#94a3b8">context → VIS-1-0002</text>
</a>
<a href="Observation-LiverHistologyEbvExample1.html">
<rect x="460" y="238" width="210" height="64" rx="4" fill="#dcfce7" stroke="#86efac"/>
<text x="469" y="255" font-size="12" font-weight="700" fill="#166534">Observation</text>
<text x="469" y="270" font-size="11" fill="#111">IIV-1-0002</text>
<text x="469" y="283" font-size="10" fill="#64748b">patient-instrumental-investigat…</text>
<text x="469" y="295" font-size="9.5" fill="#94a3b8">encounter → VIS-1-0002</text>
</a>
</svg>
